<?xml version="1.0" encoding="UTF-8" standalone="no"?>
<!DOCTYPE svg PUBLIC "-//W3C//DTD SVG 1.1//EN" "http://www.w3.org/Graphics/SVG/1.1/DTD/svg11.dtd">
<svg xmlns="http://www.w3.org/2000/svg">
<metadata>Generated by IcoMoon</metadata>
<defs>
<font id="icomoon" horiz-adv-x="1024">
<font-face units-per-em="1024" ascent="960" descent="-64"/>
<missing-glyph horiz-adv-x="1024"/>
<glyph unicode=" " horiz-adv-x="512" d=""/>
<glyph unicode="" glyph-name="uniE600" d="M512 896c246.976 0 448-200.96 448-448 0-246.976-201.024-448-448-448-247.040 0-448 201.024-448 448 0 247.040 200.96 448 448 448zM512 960c-282.752 0-512-229.248-512-512s229.248-512 512-512 512 229.248 512 512-229.248 512-512 512v0zM447.488 753.92v31.808h129.024v-31.808l-33.6-402.496h-60.864l-34.56 402.496zM452.032 275.136h120.832v-125.44h-120.832v125.44z"/>
<glyph unicode="" glyph-name="uniE601" horiz-adv-x="768" d="M22.801 547.33v-586.949h722.399v586.949h-722.399zM429.15 265.594v-169.764h-90.3v169.764c-16.389 13.229-27.090 33.23-27.090 55.986 0 39.913 32.327 72.24 72.24 72.24 39.867 0 72.33-32.327 72.33-72.24-0.135-22.756-10.791-42.757-27.18-55.986zM248.55 650.136c0 79.78 55.896 140.958 135.45 140.958 79.464 0 135.45-61.178 135.45-140.958 0-18.105 0-12.461 0-57.611h135.45c0 45.15 0 50.884 0 57.747 0 143.532-127.774 285.302-270.899 285.302s-270.899-145.428-270.899-288.914c0-6.863 0-8.985 0-54.135h135.45c0 45.105 0 50.703 0 57.611z"/>
<glyph unicode="" glyph-name="uniE602" horiz-adv-x="1396" d="M1303.273 960h-1210.182c-51.34 0-93.091-41.751-93.091-93.091v-837.818c0-51.386 41.751-93.091 93.091-93.091h1210.182c51.386 0 93.091 41.705 93.091 93.091v837.818c0 51.34-41.705 93.091-93.091 93.091zM1303.273 866.909v-93.091h-1210.182v93.091h1210.182zM465.455 29.091v279.273h186.182v-279.273h-186.182zM744.727 29.091v279.273h186.182v-279.273h-186.182zM1024 29.091v372.364h-651.636v-372.364h-279.273v651.636h1210.182v-651.636h-279.273z"/>
<glyph unicode="" glyph-name="uniE603" horiz-adv-x="1485" d="M1287.987 78.49c0-70.692-57.308-128-128-128s-128 57.308-128 128c0 70.692 57.308 128 128 128s128-57.308 128-128zM972.8 857.6v-507.29c-51.2-42.035-109.414-107.11-131.174-158.31h-198.4c-43.264 102.4-169.626 216.525-318.362 216.525-59.699 0-117.35-11.725-168.909-62.925h-53.555v512h870.4zM974.387 960h-881.613c-51.2 0-92.774-38.758-92.774-90.266v-512c0-51.456 41.574-114.534 92.774-114.534h112.026v20.378c0 29.389 77.21 53.094 129.587 53.094 127.846 0 222.31-124.774 222.31-227.174h371.2c0 102.4 44.902 165.939 147.302 201.933v578.304c0 51.507-49.715 90.266-100.813 90.266v0zM1433.498 610.458c-22.989 46.080-83.098 93.542-134.298 93.542h-172.8v-397.619c0 3.174 24.115 4.762 39.987 4.762 127.693 0 228.762-104.346 228.762-232.653 51.2 0 89.651 41.677 89.651 93.082v325.786l-51.302 113.101zM1433.6 448h-204.8v204.8h70.4c25.6 0 63.078-26.522 74.445-49.562l59.955-113.203v-42.035zM452.762 78.49c0-70.692-57.308-128-128-128s-128 57.308-128 128c0 70.692 57.308 128 128 128s128-57.308 128-128z"/>
<glyph unicode="" glyph-name="uniE604" horiz-adv-x="744" d="M743.222 587.546c0 205.21-166.442 372.454-371.61 372.454-205.25 0-371.61-164.674-371.61-369.924 0-62.632 15.628-131.41 42.986-171.584h-0.402l328.946-482.492 332.16 482.492h-0.644c25.51 40.174 40.174 108.792 40.174 169.052zM369.082 393.384c-95.736 0-173.23 77.576-173.23 173.23s77.536 173.27 173.23 173.27 173.23-77.576 173.23-173.23-77.576-173.27-173.23-173.27z"/>
<glyph unicode="" glyph-name="uniE605" d="M512 954.812c-279.851 0-506.64-226.903-506.64-506.812s226.789-506.812 506.64-506.812c279.792 0 506.64 226.903 506.64 506.812s-226.846 506.812-506.64 506.812zM609.327 709.511c-31.732-6.784-64.272-10.578-97.327-10.578-33.17 0-65.766 3.679-97.442 10.405 30.354 107.79 74.159 164.357 97.442 164.357 23.226 0 67.030-56.511 97.327-164.185zM637.668 854.725c50.877-15.695 97.385-40.989 138.201-73.354-28.054-19.315-57.833-35.699-89.106-48.404-13.395 46.967-30.124 87.899-49.094 121.759zM382.595 488.529c1.782 52.314 6.725 99.741 14.084 141.764 37.54-7.991 76.057-12.475 115.321-12.475 39.149 0 77.666 4.599 115.263 12.705 7.417-42.081 12.359-89.566 14.084-141.937h-258.752zM641.347 407.471c-1.725-51.739-6.669-98.765-13.797-140.443-40.241 9.255-81.575 14.659-123.886 14.659-36.562 0-72.549-3.852-107.79-10.809-6.842 40.759-11.555 86.404-13.279 136.647h258.752zM337.18 732.795c-31.331 12.647-61.167 29.089-89.22 48.519 40.759 32.366 87.439 57.661 138.316 73.411-19.028-33.918-35.699-74.849-49.094-121.932zM318.956 653.346c-9.486-51.050-15.465-106.525-17.42-164.817h-213.050c8.45 89.508 44.898 170.911 100.316 235.699 40.185-29.663 83.818-53.463 130.153-70.883zM301.538 407.471c1.839-56.050 7.3-109.457 16.097-158.781-47.6-17.303-92.729-41.161-134.119-71.111-52.544 63.754-86.806 143.030-95.027 229.893h213.050zM335.685 169.127c13.625-49.497 30.813-92.556 50.646-127.91-53.463 16.557-102.443 43.404-144.639 78.126 29.491 20.178 60.88 37.079 93.993 49.785zM413.007 191.604c29.606 5.863 59.902 8.911 90.658 8.911 36.218 0 71.745-4.599 106.179-12.647-30.412-108.594-74.561-165.622-97.843-165.622-23.628 0.058-68.583 58.236-98.993 169.359zM686.705 163.034c30.813-13.165 60.017-29.893 87.495-49.613-40.356-31.732-86.404-56.569-136.591-72.147 19.028 33.86 35.757 74.791 49.094 121.759zM705.158 243.229c9.371 50.877 15.407 106.179 17.246 164.242h213.106c-8.566-90.256-45.53-172.176-101.754-237.251-39.724 30.181-82.839 54.844-128.599 73.009zM722.405 488.529c-1.898 58.292-7.934 113.711-17.361 164.702 46.335 17.42 89.968 41.218 130.267 70.883 55.361-64.731 91.693-146.076 100.202-235.585h-213.106z"/>
<glyph unicode="" glyph-name="uniE607" horiz-adv-x="1220" d="M0 960h1219.048v-146.286h-1219.048v146.286zM0 521.144h1219.048v-146.286h-1219.048v146.286zM0 82.286h1219.048v-146.286h-1219.048v146.286z"/>
<glyph unicode="" glyph-name="uniE608" horiz-adv-x="902" d="M695.948 747.986c-27.138 121.7-122.914 212.014-236.928 212.014s-209.756-90.314-236.894-212.014h-222.128v-811.986h901.592v811.986h-205.644zM459.022 858.864c59.536 0 110.676-45.816 132.488-110.88h-264.942c21.778 65.064 72.918 110.88 132.454 110.88zM800.456 37.136h-699.32v609.714h699.32v-609.714z"/>
<glyph unicode="" glyph-name="uniE609" horiz-adv-x="2660" d="M2163.622 900.284l-77.046-82.728 346.978-322.52h-2407.998v-112.916h2408.184l-347.164-322.628 77.046-82.728 496.548 461.696z"/>
<glyph unicode="" glyph-name="uniE60A" horiz-adv-x="846" d="M422.564 298.596c-182.326 0-330.702 148.376-330.702 330.702s148.376 330.702 330.702 330.702 330.702-148.376 330.702-330.702-148.376-330.702-330.702-330.702zM422.564 849.766c-121.588 0-220.468-98.88-220.468-220.468s98.88-220.468 220.468-220.468 220.468 98.88 220.468 220.468-98.88 220.468-220.468 220.468zM640.79 263.798c43.726-57.982 74.774-144.076 85.1-217.566h-608.198c8.45 73.49 40.712 153.188 89.252 215.986-31.82 18.996-63.604 43.948-89.326 70.328-65.698-85.064-117.62-164.984-117.62-332.76v-63.79h845.126v63.788c0 118.648-45.856 243.396-115.746 334.78-25.464-26.456-57.028-51.626-88.592-70.77z"/>
<glyph unicode="" glyph-name="uniE60B" d="M792.73 527.974c-20.838-21.402-240.384-230.554-240.384-230.554-11.162-11.418-25.754-17.1-40.346-17.1-14.644 0-29.236 5.682-40.346 17.1 0 0-219.546 209.152-240.436 230.554-20.838 21.402-22.272 59.854 0 82.74 22.324 22.836 53.402 24.626 80.69 0l200.090-191.898 200.038 191.846c27.342 24.628 58.47 22.834 80.692 0 22.322-22.834 20.942-61.338 0-82.688z"/>
<glyph unicode="" glyph-name="uniE60D" d="M512 878.080c237.138 0 430.080-192.922 430.080-430.080 0-237.138-192.942-430.080-430.080-430.080-237.158 0-430.080 192.942-430.080 430.080 0 237.158 192.922 430.080 430.080 430.080zM512 960c-282.788 0-512-229.212-512-512s229.212-512 512-512 512 229.212 512 512-229.212 512-512 512v0zM796.918 599.922l-77.046 68.238-280.494-297.452-141.476 126.71-70.82-74.098 218.788-195.482z"/>
<glyph unicode="" glyph-name="uniE60E" d="M928 832h-832c-52.8 0-96-43.2-96-96v-576c0-52.8 43.2-96 96-96h832c52.8 0 96 43.2 96 96v576c0 52.8-43.2 96-96 96zM96 768h832c17.346 0 32-14.654 32-32v-96h-896v96c0 17.346 14.654 32 32 32zM928 128h-832c-17.346 0-32 14.654-32 32v288h896v-288c0-17.346-14.654-32-32-32zM128 320h64v-128h-64zM256 320h64v-128h-64zM384 320h64v-128h-64z"/>
<glyph unicode="" glyph-name="uniE60F" d="M739.278 771.584l-388.608-399.872-65.998 69.12 388.558 399.36zM737.74 105.472l-67.072-68.096-318.976 335.36 66.048 68.096z"/>
<glyph unicode="" glyph-name="uniE610" d="M284.672 771.584l388.608-399.872 65.996 69.12-388.558 399.36zM286.208 105.472l67.072-68.096 318.976 335.36-66.048 68.096z"/>
<glyph unicode="" glyph-name="uniE611" d="M1022.934 822.392l-137.564 137.608-372.592-372.55-372.588 372.55-137.65-137.608 372.596-372.632-372.596-372.54 137.65-137.652 372.59 372.592 372.592-372.592 137.564 137.652-372.504 372.542z"/>
<glyph unicode="" glyph-name="uniE612" horiz-adv-x="1016" d="M838.154 688.046l-88.2 88.228-238.89-238.864-238.888 238.862-88.254-88.228 238.892-238.914-238.892-238.856 88.254-88.256 238.888 238.89 238.89-238.89 88.2 88.258-238.834 238.856z"/>
<glyph unicode="" glyph-name="uniE613" d="M179.176 666.086l399.872-388.608-69.12-65.996-399.36 388.558 68.608 66.048zM845.288 664.55l68.096-67.072-335.36-318.976-68.096 66.048 335.36 320z"/>
<glyph unicode="" glyph-name="uniE614" d="M844.774 211.48l-399.872 388.608 69.12 65.998 399.36-388.558-68.608-66.048zM178.662 213.018l-68.096 67.072 335.358 318.976 68.096-66.048-335.36-320z"/>
<glyph unicode="" glyph-name="uniE615" d="M792.728 380.864c20.942-21.35 22.322-59.854 0-82.688-22.222-22.834-53.35-24.628-80.692 0l-200.038 191.846-200.090-191.898c-27.288-24.626-58.366-22.836-80.69 0-22.272 22.886-20.838 61.338 0 82.74 20.89 21.4 240.438 230.554 240.438 230.554 11.108 11.418 25.702 17.1 40.346 17.1 14.592 0 29.184-5.682 40.346-17.1 0 0 219.546-209.152 240.384-230.554h-0.004z"/>
<glyph unicode="" glyph-name="uniE616" d="M792.512 452.512h-247.008v254.976h-68.992v-254.976h-247.008v-65.024h247.008v-258.688h68.992v258.688h247.008z"/>
<glyph unicode="" glyph-name="uniE617" d="M229.5 452.5h563v-65h-563v65z"/>
<glyph unicode="" glyph-name="uniE618" d="M1025.444 777.072c-37.796-16.794-78.336-28.046-121.016-33.188 43.458 26.122 76.914 67.174 92.558 116.366-40.644-24.012-85.586-41.532-133.6-51.076-38.37 40.95-93.102 66.478-153.6 66.478-116.264 0-210.452-94.24-210.452-210.402 0-16.496 1.926-32.552 5.478-47.904-174.94 8.796-329.932 92.458-433.798 219.792-18.074-30.966-28.448-67.132-28.448-105.8 0-72.95 37.088-137.4 93.644-175.134-34.57 1.076-67.022 10.568-95.364 26.368 0-0.932 0-1.782 0-2.714 0-101.948 72.55-186.94 168.724-206.356-17.634-4.74-36.21-7.312-55.47-7.312-13.486 0-26.664 1.29-39.506 3.656 26.766-83.568 104.51-144.426 196.618-146.144-72.058-56.248-162.784-90.052-261.324-90.052-16.998 0-33.782 1.054-50.226 2.97 93.204-59.658 203.786-94.524 322.62-94.524 387.124 0 598.764 320.736 598.764 598.712 0 9.236-0.196 18.278-0.594 27.27 41.020 29.676 76.678 66.714 104.992 108.996z"/>
<glyph unicode="" glyph-name="uniE619" d="M403.036-61.84v477.572h-126.35v171.98h126.362c0 0 0 70.41 0 146.872 0 115.342 74.568 221.378 246.486 221.378 69.55 0 121.068-6.698 121.068-6.698l-4.106-160.626c0 0-52.438 0.522-109.67 0.522-61.972 0-71.904-28.528-71.904-75.95 0-37.55 0 79.932 0-125.5h186.542l-8.090-171.98h-178.524v-477.572h-181.812z"/>
<glyph unicode="" glyph-name="uniE61A" d="M567.204 957.298v-237.116h236.942v-182.968h-236.942v-262.728c0-59.432-0.716-93.664 5.572-110.52 6.236-16.906 21.956-34.304 38.994-44.38 22.662-13.61 48.764-20.438 77.844-20.438 51.928 0 103.568 16.956 154.778 50.668v-161.678c-43.664-20.51-83.354-35.010-118.918-43.346-35.564-8.294-73.942-12.482-115.14-12.482-46.9 0-74.548 5.878-110.52 17.756-36.056 11.808-66.744 28.722-92.12 50.482-25.416 21.956-43.058 45.23-52.952 69.99-9.708 24.648-14.572 60.384-14.572 107.284v359.332h-139.324v145.132c40.306 13.016 86.896 31.836 115.498 56.248 28.918 24.412 51.876 53.668 69.324 88.096 17.274 34.058 29.326 77.722 35.86 130.61l145.674 0.060z"/>
<glyph unicode="" glyph-name="uniE61B" d="M569.694 231.73c0 100.904 0 201.874 0 307.56-48.060-14.418-96.12-9.568-144.178-9.568 0-9.612 0-14.462 0-24.030 14.418 0 24.030 0 38.426 0 0-91.336 0-182.672 0-273.962-14.396 0-24.030 0-38.426 0 0-9.612 0-14.396 0-24.030 57.67 0 120.15 0 177.822 0 0 9.612 0 14.396 0 24.030-14.438 0-24.030 0-33.642 0zM512 592.178c33.642 0 57.694 24.030 57.694 57.67 0 33.62-24.052 57.65-57.694 57.65-33.664 0-57.694-24.030-57.694-57.65 0-28.858 24.030-57.67 57.694-57.67zM512 856.508c225.904 0 408.508-182.628 408.508-408.508 0-225.904-182.606-408.508-408.508-408.508-225.88 0-408.508 182.606-408.508 408.508 0 225.88 182.628 408.508 408.508 408.508zM512 928.596c-264.33 0-480.596-216.27-480.596-480.596s216.27-480.596 480.596-480.596c264.328 0 480.596 216.27 480.596 480.596s-216.27 480.596-480.596 480.596v0z"/>
<glyph unicode="" glyph-name="uniE61C" d="M919.962 528.2l-371.322 371.282-32.072 4.568-270.418 18.37-41.266 4.568-27.464-27.504-142.11-142.090v-41.246l9.134-261.262v-36.638l27.524-27.566 421.664-421.642 495.062 495.022-68.73 64.142zM489.062 97.362l-357.5 357.52-9.174 261.264 114.586 114.586 270.438-18.35 348.344-348.324-366.694-366.694zM342.384 720.712c-64.144 0-114.586-50.402-114.586-114.586 0-64.144 50.422-114.586 114.586-114.586 64.204 0 114.586 50.442 114.586 114.586 0 64.184-50.38 114.586-114.586 114.586zM342.384 560.27c-27.464 0-45.834 18.35-45.834 45.834 0 27.504 18.35 45.834 45.834 45.834 27.524 0 45.834-18.33 45.834-45.834 0-27.464-22.916-45.834-45.834-45.834z"/>
<glyph unicode="" glyph-name="uniE61D" d="M397.332 908.8v-91.708h440.218v-738.16h-440.218v-91.73h531.928v921.6zM617.41 404.438v91.71h-362.19l119.194 137.544-73.358 59.616-206.316-243.036 206.316-242.996 73.358 59.596-119.194 137.564z"/>
<glyph unicode="" glyph-name="uniE61E" d="M1012.236 356.402l-497.878 540.17-502.596-540.17 51.664-46.966 84.564 93.956v-403.942h319.402v258.322h84.542v-258.342h319.402v403.942l84.586-89.216 56.318 42.25zM805.6 473.822v-408.682h-178.476v258.366h-230.186v-258.342h-178.478v408.66l295.894 319.424 291.242-319.424z"/>
<glyph unicode="" glyph-name="uniE61F" d="M471.040 898.56h40.96v-921.6h-40.96v921.6z"/>
<glyph unicode="" glyph-name="uniE620" d="M383.040 898.56h40.96v-921.6h-40.96v921.6zM536 898.56h40.96v-921.6h-40.96v921.6z"/>
<glyph unicode="" glyph-name="uniE621" d="M958.464 762.976l-42.528 54.624-570.752-607.2-224.64 230.72-48.576-36.416 242.848-255.008 36.448-42.496z"/>
<glyph unicode="" glyph-name="uniE622" horiz-adv-x="1036" d="M1035.886 931.13l-28.87 28.87-489.074-483.98-489.074 483.98-28.868-28.87 489.074-483.98-489.074-483.98 28.868-27.17 489.076 483.98 489.076-483.98 28.868 27.172-489.076 483.98z"/>
<glyph unicode="" glyph-name="uniE623" horiz-adv-x="1510" d="M1239.698-64v0c-6.812 0-13.624 2.27-18.164 6.812l-188.452 215.698c-6.812 6.812-11.352 15.894-18.164 22.706 0 0 0 0 0 0l-2.27 2.27c-29.518 43.14-43.14 90.82-43.14 147.582 0 147.582 120.338 270.192 270.19 270.192s270.192-120.338 270.192-270.192c0-56.764-13.624-102.174-43.14-145.312l-6.812-11.352c-4.54-4.542-6.812-9.082-11.354-15.894l-190.722-217.97c-4.54-2.27-11.354-4.54-18.164-4.54zM1055.788 208.462c4.54-6.812 9.082-11.352 13.624-18.164l172.558-197.534 172.558 197.534c2.27 4.542 6.812 6.812 9.082 11.352l6.812 11.352c24.976 36.328 34.058 72.656 34.058 120.336 0 122.608-99.902 224.78-224.78 224.78s-224.78-99.902-224.78-224.78c0-45.41 11.354-86.278 36.328-122.608l4.54-2.27c0 0 0 0 0 0zM1239.698 203.92c-74.926 0-136.23 61.304-136.23 136.23s61.304 136.23 136.23 136.23c74.926 0 136.23-61.304 136.23-136.23-2.27-74.928-61.304-136.23-136.23-136.23zM1239.698 430.972c-49.952 0-90.82-40.87-90.82-90.82s40.868-90.82 90.82-90.82c49.952 0 90.82 40.87 90.82 90.82-2.27 49.952-40.868 90.82-90.82 90.82zM1121.632 97.206h-213.428v317.87h-567.628v-317.87h-295.166v635.744h1157.96v-154.394c11.354 2.27 24.976 2.27 36.328 2.27 2.27 0 4.54 0 9.082 0v333.766c0 24.976-20.434 45.41-45.41 45.41h-1157.96c-24.976 0-45.41-20.436-45.41-45.41v-817.384c0-24.976 20.434-45.41 45.41-45.41h1114.82l-38.598 45.41zM45.41 914.59h1157.96v-136.23h-1157.96v136.23zM613.038 97.206h-227.050v272.462h227.050v-272.462zM862.794 97.206h-204.346v272.462h204.346v-272.462z"/>
<glyph unicode="" glyph-name="uniE624" horiz-adv-x="1830" d="M204.8 685.204h-103.696c-15.554 0-25.924 10.37-25.924 25.924s10.37 25.924 25.924 25.924h103.696c15.554 0 25.924-10.37 25.924-25.924s-12.962-25.924-25.924-25.924zM204.8 581.51h-145.176c-15.554 0-25.924 10.37-25.924 25.924s10.37 25.924 25.924 25.924h145.176c15.554 0 25.924-10.37 25.924-25.924s-12.962-25.924-25.924-25.924zM204.8 477.812h-178.876c-15.554 0-25.924 10.37-25.924 25.924s10.37 25.924 25.924 25.924h176.284c15.554 0 25.924-10.37 25.924-25.924s-10.37-25.924-23.332-25.924zM1503.596 195.24c-72.586 0-129.62-57.034-129.62-129.62s57.032-129.62 129.62-129.62c72.586 0 129.62 57.034 129.62 129.62s-57.032 129.62-129.62 129.62zM1316.942 908.152c23.332 0 41.478-18.148 41.478-41.478v-552.182c-72.586-41.478-121.844-114.066-134.806-194.43h-279.98c-23.332 134.806-142.582 235.908-282.572 235.908-54.442 0-124.436-31.11-152.952-44.072l-82.956-2.592c-23.332 0-41.478 18.148-41.478 41.478v518.48c0 23.332 18.146 41.478 41.478 41.478h891.788zM1316.942 960h-891.788c-51.848 0-93.326-41.478-93.326-93.326v-518.48c0-51.848 41.478-93.326 93.326-93.326l95.918 2.592c0 0 88.142 44.072 139.99 44.072 129.62 0 233.316-106.288 233.316-235.908h375.9c0 95.918 57.032 178.876 139.99 215.17v583.292c0 54.442-41.478 95.918-93.326 95.918v0zM1780.982 594.472c-23.332 46.664-82.956 82.956-134.806 82.956h-186.654v-381.084c15.554 2.592 31.108 5.184 46.664 5.184 129.62 0 233.316-106.288 233.316-235.908 51.848 0 93.326 41.478 93.326 93.326v329.236l-51.848 106.288zM1765.426 441.52h-215.17v189.246h93.326c25.924 0 57.032-18.148 67.404-41.478l51.848-106.29v-41.478zM658.472 195.24c-72.586 0-129.62-57.034-129.62-129.62s57.034-129.62 129.62-129.62c72.586 0 129.62 57.034 129.62 129.62s-57.034 129.62-129.62 129.62z"/>
<glyph unicode="" glyph-name="uniE625" horiz-adv-x="1570" d="M993.432 160.158c-35.662 0-71.322 0-112.080 0 0 193.592 0 382.090 0 575.682 35.662 0 71.322 0 112.080 0 0-193.592 0-382.090 0-575.682zM1207.404 735.84c0-193.592 0-382.090 0-575.682-35.662 0-66.23 0-101.892 0 0 193.592 0 382.090 0 575.682 30.568 0 66.23 0 101.892 0zM540.020 735.84c25.472 0 50.946 0 81.512 0 0-193.592 0-382.090 0-575.682-25.472 0-50.946 0-81.512 0 0 193.592 0 382.090 0 575.682zM290.388 160.158c0 193.592 0 382.090 0 575.682 15.284 0 81.512 0 81.512 0s0-382.090 0-565.494c0-10.188 0-10.188-15.284-10.188-25.474 0-45.85 0-66.228 0zM509.452 160.158c-25.474 0-50.944 0-81.512 0 0 193.592 0 382.090 0 575.682 5.096 0 10.19 0 10.19 0 20.378 0 45.85 0 66.228 0 5.096-193.592 5.096-382.090 5.096-575.682zM682.668 735.84c15.284 0 15.284 0 25.472 0 0-193.592 0-382.090 0-575.682-15.284 0-15.284 0-25.472 0 0 193.592 0 382.090 0 575.682zM825.312 160.158c-15.284 0-25.472 0-40.756 0 0 193.592 0 382.090 0 575.682 10.188 0 25.472 0 40.756 0 0-193.592 0-382.090 0-575.682zM1278.726 160.158c-15.284 0-25.472 0-40.756 0 0 193.592 0 382.090 0 575.682 15.284 0 25.472 0 40.756 0 0-193.592 0-382.090 0-575.682zM1390.806 883.582c56.040 0 101.892-45.85 101.892-101.89v-662.288c0-56.040-45.852-101.89-101.892-101.89h-1197.214c-56.040 0-101.892 45.85-101.892 101.89v662.288c0 56.040 45.85 101.89 101.892 101.89h1197.214zM1390.806 960h-1197.214c-101.892 0-178.308-81.512-178.308-178.308v-662.288c0-101.89 81.512-178.308 178.308-178.308h1197.214c101.892 0 178.308 81.512 178.308 178.308v662.288c0 96.796-81.512 178.308-178.308 178.308v0z"/>
<glyph unicode="" glyph-name="uniE627" horiz-adv-x="1771" d="M865.228 211.713v-118.163h-708.978v708.978h708.978v-196.938h157.551v196.859c0 87.086-70.543 157.551-157.551 157.551h-707.678c-87.007 0-157.551-70.465-157.551-157.551v-708.899c0-87.007 70.543-157.551 157.551-157.551h707.678c87.007 0 157.551 70.543 157.551 157.551v118.163h-157.551zM1102.933 329.798l353.11 0.079-223.407-215.293c-15.598-15.322-15.598-40.254 0-55.576l67.747-72.158c15.558-15.322 41.081-15.322 56.639 0l402.227 394.034c15.598 15.282 15.598 40.254 0 55.537l-402.227 394.034c-15.558 15.282-41.081 15.282-56.639 0l-60.381-53.646c-15.598-15.282-15.598-40.254 0-55.576l238.807-233.884h-375.876c-22.096 0-40.175-17.685-40.175-39.388v-78.775c0-21.624 18.079-39.388 40.175-39.388zM1588.74 408.652l-0.867-0.906v1.772l0.867-0.867z"/>
<glyph unicode="" glyph-name="uniE6032" horiz-adv-x="786" d="M1.14 546.106l-1.098-610.106h785.246v610.106h-784.148zM581.918 58.020h-366.062v40.674h366.062v-40.674zM581.918 220.716h-366.062v40.674h366.062v-40.674zM581.918 383.41h-366.062v40.674h366.062v-40.674zM256.528 669.752c0 83.218 59.424 146.426 142.358 146.426 82.852 0 142.358-63.206 142.358-146.426 0-18.872 0-42.3 0-82.974h143.294c0 40.674-0.082 71.016-0.082 78.216 0 149.678-145.042 295.006-294.234 295.006-149.272 0-291.466-146.548-291.466-296.186 0-7.2-0.082-36.362-0.082-77.036h157.854c0 40.674 0 75.774 0 82.974z"/>
<glyph unicode="" glyph-name="uniE6022" horiz-adv-x="1392" d="M1337.974 90.794l-586.784 410.63c91.156 28.36 157.686 113.134 157.686 213.49 0 123.366-99.526 223.764-222.934 223.764-123.366 0-222.89-100.394-222.89-223.764v-65.534h124.198v65.534c0 54.898 43.806 99.558 98.692 99.558 54.934 0 99.188-48.314 99.188-103.25s-45.13-103.292-100.054-103.292h-61.722l-0.706-111.198c-136.86-94.508-534.614-367.986-571.878-401.434-39.046-35.14-41.268-68.226-36.258-90.534 7.786-34.616 36.102-52.042 59.986-59.198l17.552 0.010c0 0 325.060-3.4 636.96-3.4 556.6 0 567.694 2.48 581.734 6.866 28.978 9.112 49.348 29.182 55.968 56.054 10.432 42.938-19.378 76.254-28.732 85.646zM729.004 64.34c-192.54 0-390.104 0.496-513.010 0.868 113.266 80.69 318.144 223.144 471.65 329.156l470.786-328.618c-80.85-0.744-213.206-1.404-429.426-1.404z"/>
<glyph unicode="" glyph-name="uniE6002" horiz-adv-x="972" d="M971.174 21.024l-286.404 318.564c56.808 64.81 91.336 148.594 91.336 240.192 0 204.688-171.4 371.164-382.212 371.164-210.548 0-381.948-166.514-381.948-371.164s171.4-371.164 381.948-371.164c71.95 0 139.050 19.762 196.572 53.426l293.13-326.042 87.578 85.024zM118.762 579.78c0 147.542 123.382 267.432 275.132 267.432s275.172-119.89 275.172-267.432-123.422-267.43-275.17-267.43-275.132 119.89-275.132 267.43z"/>
<glyph unicode="" glyph-name="ff-logo" horiz-adv-x="1957" d="M159.354 800.646h527.64v-67.283h-455.046v-239.622h432.028v-67.283h-432.028v-332.284h-72.595v706.471zM1089.512 245.856c-38.363-48.397-112.729-79.087-198.898-79.087-136.337 0-203.029 68.463-203.029 160.535 0 74.365 44.265 116.86 148.731 159.945-38.953 36.593-67.873 67.873-67.873 118.631 0 66.103 51.938 111.548 130.435 111.548 97.973 0 131.025-59.61 131.025-109.187 0-69.054-56.659-107.417-112.138-130.435l164.666-155.813c16.526 21.837 26.559 67.873 28.92 90.301h50.757c0-28.33-13.575-81.448-43.085-123.942l115.089-108.597h-76.136l-68.463 66.103zM868.187 454.787c-84.989-31.871-125.123-70.824-125.123-130.435 0-56.659 46.036-110.958 150.501-110.958 63.152 0 111.548 14.165 159.945 64.922l-185.323 176.47zM895.336 670.211c-38.363 0-75.546-24.198-75.546-62.561 0-21.837 5.312-41.314 65.512-100.924 64.922 27.739 93.842 59.61 93.842 97.973 0 34.232-23.608 65.512-83.809 65.512zM1272.475 800.646h527.64v-67.283h-454.455v-239.622h432.028v-67.283h-432.028v-332.284h-73.185v706.471z"/>
<glyph unicode="" glyph-name="instagram" d="M488 252.8c-105.6 10.4-202.4 124-159.2 252.8 2.4 8 8.8 16.8 12.8 25.6-104 0.8-203.2 0-203.2 0v-330.4c7.2-69.6 61.6-124 132-130.4h488c70.4 7.2 123.2 66.4 130.4 128v331.2c0 0-97.6-0.8-200.8-0.8 56.8-133.6-37.6-292-200-276zM512 296.8c67.2 0 149.6 48 148.8 148.8-0.8 91.2-73.6 156-167.2 144.8-28.8-3.2-44-9.6-58.4-18.4-32.8-20-64-56.8-69.6-106.4-12-100 61.6-168.8 146.4-168.8zM411.2 488.8c12 28.8 39.2 60 95.2 64 68.8 4.8 133.6-56.8 113.6-137.6-12-50.4-68.8-88.8-126.4-80.8-56 8.8-115.2 77.6-82.4 154.4zM845.6 782.4c-20 20-53.6 38.4-89.6 42.4h-244l-140-0.8v-181.6h-40.8v181.6h-18.4v-181.6h-40.8v180.8c-7.2 0-11.2 0-18.4-2.4v-178.4h-40.8v168c-16.8-6.4-28-20.8-34.4-28-41.6-41.6-44.8-112.8-42.4-203.2h232.8c9.6 2.4 20.8 13.6 29.6 20 31.2 23.2 72 36 112.8 36h0.8c40.8-0.8 81.6-12.8 112.8-36 8.8-6.4 20-17.6 29.6-20h233.6c0.8 91.2-0.8 161.6-42.4 203.2zM813.6 659.2c0-10.4-8.8-19.2-19.2-19.2h-80.8c-10.4 0-19.2 8.8-19.2 19.2v80.8c0 10.4 8.8 19.2 19.2 19.2h80.8c10.4 0 19.2-8.8 19.2-19.2v-80.8z"/>
<glyph unicode="" glyph-name="pinterest" d="M908.352 623.040c0-230.72-128.256-403.136-317.376-403.136-63.52 0-123.232 34.336-143.68 73.344 0 0-34.176-135.52-41.344-161.696-25.472-92.416-100.384-184.864-106.176-192.48-4.064-5.28-13.024-3.616-13.984 3.36-1.632 11.776-20.704 128.416 1.76 223.552 11.264 47.776 75.648 320.512 75.648 320.512s-18.752 37.568-18.752 93.056c0 87.2 50.496 152.256 113.408 152.256 53.504 0 79.328-40.128 79.328-88.288 0-53.824-34.208-134.208-51.904-208.704-14.752-62.4 31.296-113.312 92.832-113.312 111.424 0 186.464 143.168 186.464 312.736 0 128.896-86.784 225.408-244.736 225.408-178.368 0-289.568-133.056-289.568-281.696 0-51.264 15.136-87.424 38.816-115.36 10.848-12.864 12.384-18.016 8.448-32.8-2.88-10.848-9.28-36.864-12.032-47.2-3.904-14.912-15.968-20.224-29.44-14.72-82.144 33.536-120.448 123.552-120.448 224.704 0.032 167.072 140.928 367.424 420.384 367.424 224.608 0 372.352-162.464 372.352-336.96z"/>
<glyph unicode="" glyph-name="uniE97B" d="M1024 448c-1.278 66.862-15.784 133.516-42.576 194.462-26.704 61-65.462 116.258-113.042 161.92-47.552 45.696-103.944 81.82-164.984 105.652-61.004 23.924-126.596 35.352-191.398 33.966-64.81-1.282-129.332-15.374-188.334-41.356-59.048-25.896-112.542-63.47-156.734-109.576-44.224-46.082-79.16-100.708-102.186-159.798-23.114-59.062-34.128-122.52-32.746-185.27 1.286-62.76 14.964-125.148 40.134-182.206 25.088-57.1 61.476-108.828 106.11-151.548 44.61-42.754 97.472-76.504 154.614-98.72 57.118-22.304 118.446-32.902 179.142-31.526 60.708 1.29 120.962 14.554 176.076 38.914 55.15 24.282 105.116 59.48 146.366 102.644 41.282 43.14 73.844 94.236 95.254 149.43 13.034 33.458 21.88 68.4 26.542 103.798 1.246-0.072 2.498-0.12 3.762-0.12 35.346 0 64 28.652 64 64 0 1.796-0.094 3.572-0.238 5.332h0.238zM922.306 278.052c-23.472-53.202-57.484-101.4-99.178-141.18-41.67-39.81-91-71.186-144.244-91.79-53.228-20.678-110.29-30.452-166.884-29.082-56.604 1.298-112.596 13.736-163.82 36.474-51.25 22.666-97.684 55.49-135.994 95.712-38.338 40.198-68.528 87.764-88.322 139.058-19.87 51.284-29.228 106.214-27.864 160.756 1.302 54.552 13.328 108.412 35.254 157.69 21.858 49.3 53.498 93.97 92.246 130.81 38.73 36.868 84.53 65.87 133.874 84.856 49.338 19.060 102.136 28.006 154.626 26.644 52.5-1.306 104.228-12.918 151.562-34.034 47.352-21.050 90.256-51.502 125.624-88.782 35.396-37.258 63.21-81.294 81.39-128.688 18.248-47.392 26.782-98.058 25.424-148.496h0.238c-0.144-1.76-0.238-3.536-0.238-5.332 0-33.012 24.992-60.174 57.086-63.624-6.224-34.822-16.53-68.818-30.78-100.992z"/>
<glyph unicode="" glyph-name="uniEA10" d="M864 832l-480-480-224 224-160-160 384-384 640 640z"/>
<glyph unicode="" glyph-name="google-plus" horiz-adv-x="951" d="M420 496q0-20.571 18.286-40.286t44.286-38.857 51.714-42 44-59.429 18.286-81.143q0-51.429-27.429-98.857-41.143-69.714-120.571-102.571t-170.286-32.857q-75.429 0-140.857 23.714t-98 78.571q-21.143 34.286-21.143 74.857 0 46.286 25.429 85.714t67.714 65.714q74.857 46.857 230.857 57.143-18.286 24-27.143 42.286t-8.857 41.714q0 20.571 12 48.571-26.286-2.286-38.857-2.286-84.571 0-142.571 55.143t-58 139.714q0 46.857 20.571 90.857t56.571 74.857q44 37.714 104.286 56t124.286 18.286h238.857l-78.857-50.286h-74.857q42.286-36 64-76t21.714-91.429q0-41.143-14-74t-33.714-53.143-39.714-37.143-34-35.143-14-37.714zM336.571 550.857q21.714 0 44.571 9.429t37.714 24.857q30.286 32.571 30.286 90.857 0 33.143-9.714 71.429t-27.714 74-48.286 59.143-66.857 23.429q-24 0-47.143-11.143t-37.429-30q-26.857-33.714-26.857-91.429 0-26.286 5.714-55.714t18-58.857 29.714-52.857 42.857-38.286 55.143-14.857zM337.714 52q33.143 0 63.714 7.429t56.571 22.286 41.714 41.714 15.714 62.286q0 14.286-4 28t-8.286 24-15.429 23.714-16.857 20-22 19.714-20.857 16.571-23.714 17.143-20.857 14.857q-9.143 1.143-27.429 1.143-30.286 0-60-4t-61.429-14.286-55.429-26.286-39.143-42.571-15.429-60.286q0-40 20-70.571t52.286-47.429 68-25.143 72.857-8.286zM800.571 552.571h121.714v-61.714h-121.714v-125.143h-60v125.143h-121.143v61.714h121.143v124h60v-124z"/>
<glyph unicode="" glyph-name="youtube" horiz-adv-x="878" d="M554.857 240v-120.571q0-38.286-22.286-38.286-13.143 0-25.714 12.571v172q12.571 12.571 25.714 12.571 22.286 0 22.286-38.286zM748 239.428v-26.286h-51.429v26.286q0 38.857 25.714 38.857t25.714-38.857zM196 364h61.143v53.714h-178.286v-53.714h60v-325.143h57.143v325.143zM360.571 38.857h50.857v282.286h-50.857v-216q-17.143-24-32.571-24-10.286 0-12 12-0.571 1.714-0.571 20v208h-50.857v-223.429q0-28 4.571-41.714 6.857-21.143 33.143-21.143 27.429 0 58.286 34.857v-30.857zM605.714 123.428v112.571q0 41.714-5.143 56.571-9.714 32-40.571 32-28.571 0-53.143-30.857v124h-50.857v-378.857h50.857v27.429q25.714-31.429 53.143-31.429 30.857 0 40.571 31.429 5.143 15.429 5.143 57.143zM798.857 129.143v7.429h-52q0-29.143-1.143-34.857-4-20.571-22.857-20.571-26.286 0-26.286 39.429v49.714h102.286v58.857q0 45.143-15.429 66.286-22.286 29.143-60.571 29.143-38.857 0-61.143-29.143-16-21.143-16-66.286v-98.857q0-45.143 16.571-66.286 22.286-29.143 61.714-29.143 41.143 0 61.714 30.286 10.286 15.429 12 30.857 1.143 5.143 1.143 33.143zM451.429 650.857v120q0 39.429-24.571 39.429t-24.571-39.429v-120q0-40 24.571-40t24.571 40zM862.286 221.714q0-133.714-14.857-200-8-33.714-33.143-56.571t-58.286-26.286q-105.143-12-317.143-12t-317.143 12q-33.143 3.429-58.571 26.286t-32.857 56.571q-14.857 64-14.857 200 0 133.714 14.857 200 8 33.714 33.143 56.571t58.857 26.857q104.571 11.429 316.571 11.429t317.143-11.429q33.143-4 58.571-26.857t32.857-56.571q14.857-64 14.857-200zM292 950.857h58.286l-69.143-228v-154.857h-57.143v154.857q-8 42.286-34.857 121.143-21.143 58.857-37.143 106.857h60.571l40.571-150.286zM503.429 760.571v-100q0-46.286-16-67.429-21.143-29.143-60.571-29.143-38.286 0-60 29.143-16 21.714-16 67.429v100q0 45.714 16 66.857 21.714 29.143 60 29.143 39.429 0 60.571-29.143 16-21.143 16-66.857zM694.857 853.143v-285.143h-52v31.429q-30.286-35.429-58.857-35.429-26.286 0-33.714 21.143-4.571 13.714-4.571 42.857v225.143h52v-209.714q0-18.857 0.571-20 1.714-12.571 12-12.571 15.429 0 32.571 24.571v217.714h52z"/>
</font>
</defs>
</svg>
